HIERARCHY
ROOT Hips
{
  OFFSET 46.4589 95.5252 4.19283
  CHANNELS 6 Xposition Yposition Zposition Zrotation Xrotation Yrotation
  JOINT spine
  {
    OFFSET 0 7.96568 0.458067
    CHANNELS 3 Zrotation Xrotation Yrotation
    JOINT spine1
    {
      OFFSET 0 10.2431 0
      CHANNELS 3 Zrotation Xrotation Yrotation
      JOINT spine2
      {
        OFFSET 0 9.81475 0
        CHANNELS 3 Zrotation Xrotation Yrotation
        JOINT Neck
        {
          OFFSET 0 25.1986 1.20138
          CHANNELS 3 Zrotation Xrotation Yrotation
          JOINT Head
          {
            OFFSET 0 7.61315 0
            CHANNELS 3 Zrotation Xrotation Yrotation
            End Site
            {
              OFFSET 0 18.4281 -6.07733
            }
          }
        }
        JOINT RightShoulder
        {
          OFFSET -4.1327 10.5992 -0.575451
          CHANNELS 3 Zrotation Xrotation Yrotation
          JOINT RightArm
          {
            OFFSET 0 13.9018 0
            CHANNELS 3 Zrotation Xrotation Yrotation
            JOINT RightArmRoll
            {
              OFFSET 0 7.01788 0
              CHANNELS 3 Zrotation Xrotation Yrotation
              JOINT RightForeArm
              {
                OFFSET 0 20.4406 0
                CHANNELS 3 Zrotation Xrotation Yrotation
                JOINT RightForeArmRoll
                {
                  OFFSET 0 7.87515 0
                  CHANNELS 3 Zrotation Xrotation Yrotation
                  JOINT RightHand
                  {
                    OFFSET 0 15.8037 0
                    CHANNELS 3 Zrotation Xrotation Yrotation
                    End Site
                    {
                      OFFSET 0 0 0
                    }
                  }
                }
              }
            }
          }
        }
        JOINT LeftShoulder
        {
          OFFSET 4.1327 10.5992 -0.575451
          CHANNELS 3 Zrotation Xrotation Yrotation
          JOINT LeftArm
          {
            OFFSET 0 13.9018 0
            CHANNELS 3 Zrotation Xrotation Yrotation
            JOINT LeftArmRoll
            {
              OFFSET 0 7.01788 0
              CHANNELS 3 Zrotation Xrotation Yrotation
              JOINT LeftForeArm
              {
                OFFSET 0 20.4406 0
                CHANNELS 3 Zrotation Xrotation Yrotation
                JOINT LeftForeArmRoll
                {
                  OFFSET 0 7.87515 0
                  CHANNELS 3 Zrotation Xrotation Yrotation
                  JOINT LeftHand
                  {
                    OFFSET 0 15.8037 0
                    CHANNELS 3 Zrotation Xrotation Yrotation
                    End Site
                    {
                      OFFSET 0 0 0
                    }
                  }
                }
              }
            }
          }
        }
      }
    }
  }
  JOINT RightUpLeg
  {
    OFFSET -7.06048 -1.2947 -1.08609
    CHANNELS 3 Zrotation Xrotation Yrotation
    JOINT RightUpLegRoll
    {
      OFFSET 0 18.5308 0
      CHANNELS 3 Zrotation Xrotation Yrotation
      JOINT RightLeg
      {
        OFFSET 0 -22.9476 0
        CHANNELS 3 Zrotation Xrotation Yrotation
        JOINT RightLegRoll
        {
          OFFSET 0 23.0226 0
          CHANNELS 3 Zrotation Xrotation Yrotation
          JOINT RightFoot
          {
            OFFSET 0 19.1625 0
            CHANNELS 3 Zrotation Xrotation Yrotation
            JOINT RightToeBase
            {
              OFFSET 0 16.0188 0
              CHANNELS 3 Zrotation Xrotation Yrotation
              End Site
              {
                OFFSET 0.00678979 7.75782 -0.894206
              }
            }
          }
        }
      }
    }
  }
  JOINT LeftUpLeg
  {
    OFFSET 7.06048 -1.2947 -1.08609
    CHANNELS 3 Zrotation Xrotation Yrotation
    JOINT LeftUpLegRoll
    {
      OFFSET 0 18.5309 0
      CHANNELS 3 Zrotation Xrotation Yrotation
      JOINT LeftLeg
      {
        OFFSET 0 22.9475 0
        CHANNELS 3 Zrotation Xrotation Yrotation
        JOINT LeftLegRoll
        {
          OFFSET 0 23.2355 0
          CHANNELS 3 Zrotation Xrotation Yrotation
          JOINT LeftFoot
          {
            OFFSET 0 18.9496 0
            CHANNELS 3 Zrotation Xrotation Yrotation
            JOINT LeftToeBase
            {
              OFFSET 0 16.0188 0
              CHANNELS 3 Zrotation Xrotation Yrotation
              End Site
              {
                OFFSET -0.0304289 7.75782 -0.894206
              }
            }
          }
        }
      }
    }
  }
}
MOTION
Frames: 10
Frame Time: 0.00208333
49.9878 95.5164 2.9431 -1.53653 -3.25356 0.539155 0.388158 -1.67267 0.00280091 0.768434 0.657269 -0.0249394 0.769215 2.30226 -0.0378501 -1.71059 23.4659 -0.27174 1.11911 -3.69317 -0.726978 66.9342 1.24126 -0.340448 101.661 15.7502 23.2417 -4.28569e-006 -3.66567e-008 1.56627e-006 2.7339 0.031449 -0.0860106 -3.60897e-006 2.55821e-006 -3.0072 8.02993 -4.95141 0.697637 -70.9634 -1.22179 2.02358 -100.906 18.599 -20.2225 3.94992e-006 -2.13711e-006 1.49383e-006 -2.88915 2.8311 -0.229417 -5.8692e-006 4.24387e-007 3.00558 -8.0299 -4.95141 -0.69765 176.779 -4.8839 -2.33279 -180 7.01499e-015 178.73 177.954 6.90684 179.571 -3.87685e-006 -2.58471e-006 0.177689 -20.8504 70.2585 21.6273 8.17467 25.8706 -2.63259 -173.059 -2.24721 -0.422272 4.54188e-006 -4.6773e-006 -1.20236 -2.02408 -9.64606 0.118428 -2.5591e-006 -2.09025e-006 -0.252703 22.1963 71.7247 -23.2443 -8.13269 25.2457 3.48656 
49.9895 95.5148 2.9436 -1.54078 -3.25716 0.54839 0.388506 -1.67046 0.00355086 0.769782 0.661684 -0.0241081 0.770549 2.30667 -0.0370381 -1.69373 23.4604 -0.283827 1.10632 -3.68999 -0.734777 66.9305 1.21272 -0.354794 101.67 15.7579 23.2221 -4.28569e-006 -3.66567e-008 1.56627e-006 2.74864 0.0314486 -0.0861113 -3.60897e-006 2.55821e-006 -3.0072 8.02993 -4.95141 0.697637 -70.9458 -1.20392 2.01326 -100.936 18.6 -20.2441 3.94992e-006 -2.13711e-006 1.49383e-006 -2.85274 2.79909 -0.23285 -5.8692e-006 4.24387e-007 3.00558 -8.0299 -4.95141 -0.69765 176.783 -4.89096 -2.33307 -180 7.01499e-015 178.73 177.952 6.9078 179.571 -3.87685e-006 -2.58471e-006 0.177689 -20.852 70.26 21.629 8.17475 25.8718 -2.63109 -173.054 -2.24138 -0.425215 4.54188e-006 -4.6773e-006 -1.20231 -2.02256 -9.66463 0.118253 -2.5591e-006 -2.09025e-006 -0.253294 22.2058 71.7327 -23.2559 -8.13269 25.2457 3.48656 
49.9953 95.5143 2.9227 -1.54525 -3.25992 0.558462 0.388891 -1.66839 0.00428429 0.771208 0.665826 -0.0233348 0.771961 2.31081 -0.036285 -1.67622 23.454 -0.296351 1.09337 -3.68599 -0.742797 66.9267 1.18304 -0.369724 101.679 15.7661 23.2019 -4.28569e-006 -3.66567e-008 1.56627e-006 2.76377 0.0314482 -0.086222 -3.60897e-006 2.55821e-006 -3.0072 8.02993 -4.95141 0.697637 -70.9281 -1.18518 2.00253 -100.968 18.5994 -20.2638 3.94992e-006 -2.13711e-006 1.49383e-006 -2.81855 2.77089 -0.236187 -5.8692e-006 4.24387e-007 3.00558 -8.0299 -4.95141 -0.69765 176.788 -4.89731 -2.33349 -180 7.01499e-015 178.73 177.949 6.90839 179.571 -3.87685e-006 -2.58471e-006 0.177689 -20.8533 70.2613 21.6304 8.17484 25.873 -2.6295 -173.049 -2.23411 -0.428239 4.54188e-006 -4.6773e-006 -1.20224 -2.02099 -9.68368 0.118084 -2.5591e-006 -2.09025e-006 -0.253866 22.215 71.7406 -23.2675 -8.13269 25.2457 3.48656 
49.9935 95.5181 2.93986 -1.54987 -3.26207 0.569119 0.389302 -1.66642 0.00500614 0.772689 0.669778 -0.022602 0.773429 2.31477 -0.0355732 -1.65825 23.4469 -0.309181 1.08032 -3.68141 -0.750973 66.9229 1.15257 -0.385063 101.688 15.7746 23.1812 -4.28569e-006 -3.66567e-008 1.56627e-006 2.77918 0.0314478 -0.0863395 -3.60897e-006 2.55821e-006 -3.0072 8.02993 -4.95141 0.697637 -70.9105 -1.16585 1.99151 -101 18.5976 -20.2822 3.94992e-006 -2.13711e-006 1.49383e-006 -2.7859 2.74536 -0.239456 -5.8692e-006 4.24387e-007 3.00558 -8.0299 -4.95141 -0.69765 176.793 -4.90318 -2.33403 -180 7.01499e-015 178.73 177.947 6.90881 179.572 -3.87685e-006 -2.58471e-006 0.177689 -20.8545 70.2624 21.6317 8.17493 25.8743 -2.62785 -173.043 -2.22584 -0.43132 4.54188e-006 -4.6773e-006 -1.20216 -2.0194 -9.70304 0.117919 -2.5591e-006 -2.09025e-006 -0.254425 22.224 71.7485 -23.2791 -8.13269 25.2457 3.48656 
49.9952 95.5147 2.9309 -1.55457 -3.26389 0.580111 0.389727 -1.6645 0.00572139 0.774202 0.673622 -0.0218925 0.774928 2.31861 -0.0348849 -1.64003 23.4394 -0.322185 1.06721 -3.67651 -0.759237 66.919 1.12163 -0.400635 101.697 15.7834 23.1602 -4.28569e-006 -3.66567e-008 1.56627e-006 2.79475 0.0314473 -0.086461 -3.60897e-006 2.55821e-006 -3.0072 8.02993 -4.95141 0.697637 -70.8928 -1.14617 1.98033 -101.032 18.5951 -20.2999 3.94992e-006 -2.13711e-006 1.49383e-006 -2.75414 2.72135 -0.242686 -5.8692e-006 4.24387e-007 3.00558 -8.0299 -4.95141 -0.69765 176.798 -4.90876 -2.33463 -180 7.01499e-015 178.73 177.945 6.90906 179.572 -3.87685e-006 -2.58471e-006 0.177689 -20.8555 70.2633 21.6328 8.17502 25.8756 -2.62617 -173.037 -2.21699 -0.434433 4.54188e-006 -4.6773e-006 -1.20207 -2.01778 -9.72259 0.117758 -2.5591e-006 -2.09025e-006 -0.254977 22.2329 71.7562 -23.2907 -8.13269 25.2457 3.48656 
49.9949 95.5153 2.93969 -1.55929 -3.26562 0.591186 0.390156 -1.66259 0.00643498 0.775722 0.677438 -0.0211887 0.776435 2.32242 -0.0342026 -1.62174 23.4318 -0.335232 1.05409 -3.67152 -0.767523 66.9151 1.09059 -0.416266 101.707 15.7921 23.1391 -4.28569e-006 -3.66567e-008 1.56627e-006 2.81035 0.0314469 -0.0865835 -3.60897e-006 2.55821e-006 -3.0072 8.02993 -4.95141 0.697637 -70.8751 -1.12641 1.9691 -101.065 18.5925 -20.3173 3.94992e-006 -2.13711e-006 1.49383e-006 -2.72261 2.69772 -0.245907 -5.8692e-006 4.24387e-007 3.00558 -8.0299 -4.95141 -0.69765 176.803 -4.91427 -2.33524 -180 7.01499e-015 178.73 177.942 6.90931 179.572 -3.87685e-006 -2.58471e-006 0.177689 -20.8565 70.2642 21.6338 8.17511 25.8769 -2.62448 -173.032 -2.208 -0.437555 4.54188e-006 -4.6773e-006 -1.20198 -2.01616 -9.74218 0.117597 -2.5591e-006 -2.09025e-006 -0.255527 22.2417 71.764 -23.3022 -8.13269 25.2457 3.48656 
50.0016 95.5106 2.93572 -1.56397 -3.26752 0.602094 0.390577 -1.66066 0.00715188 0.777227 0.681309 -0.0204733 0.777926 2.3263 -0.0335084 -1.60359 23.4244 -0.348189 1.04099 -3.66669 -0.775765 66.9111 1.05977 -0.43178 101.716 15.8008 23.1181 -4.28569e-006 -3.66567e-008 1.56627e-006 2.82588 0.0314465 -0.086704 -3.60897e-006 2.55821e-006 -3.0072 8.02993 -4.95141 0.697637 -70.8575 -1.10681 1.95796 -101.097 18.5902 -20.3351 3.94992e-006 -2.13711e-006 1.49383e-006 -2.69063 2.67333 -0.249147 -5.8692e-006 4.24387e-007 3.00558 -8.0299 -4.95141 -0.69765 176.808 -4.91992 -2.33582 -180 7.01499e-015 178.73 177.94 6.90961 179.573 -3.87685e-006 -2.58471e-006 0.177689 -20.8575 70.2652 21.635 8.1752 25.8782 -2.6228 -173.026 -2.1993 -0.44066 4.54188e-006 -4.6773e-006 -1.20189 -2.01455 -9.76168 0.117435 -2.5591e-006 -2.09025e-006 -0.256081 22.2506 71.7718 -23.3138 -8.13269 25.2457 3.48656 
49.9999 95.5128 2.94035 -1.56854 -3.26984 0.612584 0.390981 -1.65865 0.00787703 0.778692 0.685316 -0.019729 0.779377 2.3303 -0.0327847 -1.58577 23.4175 -0.360926 1.02798 -3.66228 -0.783896 66.9072 1.02952 -0.447001 101.726 15.8092 23.0975 -4.28569e-006 -3.66567e-008 1.56627e-006 2.84121 0.0314461 -0.0868196 -3.60897e-006 2.55821e-006 -3.0072 8.02993 -4.95141 0.697637 -70.8398 -1.08765 1.94703 -101.129 18.5887 -20.3539 3.94992e-006 -2.13711e-006 1.49383e-006 -2.65756 2.64704 -0.252434 -5.8692e-006 4.24387e-007 3.00558 -8.0299 -4.95141 -0.69765 176.813 -4.92592 -2.33633 -180 7.01499e-015 178.73 177.937 6.91006 179.573 -3.87685e-006 -2.58471e-006 0.177689 -20.8587 70.2663 21.6362 8.17529 25.8795 -2.62117 -173.02 -2.19132 -0.443724 4.54188e-006 -4.6773e-006 -1.20181 -2.01297 -9.78095 0.117269 -2.5591e-006 -2.09025e-006 -0.256644 22.2597 71.7797 -23.3254 -8.13269 25.2457 3.48656 
49.9947 95.5131 2.95488 -1.57293 -3.27285 0.622405 0.391354 -1.65654 0.0086154 0.780094 0.68954 -0.0189383 0.780766 2.33453 -0.032014 -1.56847 23.4113 -0.373311 1.01509 -3.65853 -0.791849 66.9033 1.00019 -0.461755 101.734 15.8173 23.0775 -4.28569e-006 -3.66567e-008 1.56627e-006 2.85622 0.0314457 -0.0869272 -3.60897e-006 2.55821e-006 -3.0072 8.02993 -4.95141 0.697637 -70.8221 -1.06917 1.93643 -101.16 18.5886 -20.3742 3.94992e-006 -2.13711e-006 1.49383e-006 -2.62272 2.61769 -0.2558 -5.8692e-006 4.24387e-007 3.00558 -8.0299 -4.95141 -0.69765 176.817 -4.93249 -2.33671 -180 7.01499e-015 178.73 177.935 6.91078 179.573 -3.87685e-006 -2.58471e-006 0.177689 -20.8602 70.2677 21.6378 8.17538 25.8807 -2.61961 -173.015 -2.18448 -0.446724 4.54188e-006 -4.6773e-006 -1.20175 -2.01142 -9.79986 0.117098 -2.5591e-006 -2.09025e-006 -0.257222 22.2691 71.7876 -23.3371 -8.13269 25.2457 3.48656 
49.9961 95.5108 2.95467 -1.57709 -3.27679 0.631306 0.391687 -1.65428 0.00937195 0.781409 0.694063 -0.0180838 0.782067 2.33905 -0.0311783 -1.5519 23.4062 -0.385214 1.00237 -3.65568 -0.799558 66.8995 0.972104 -0.475866 101.743 15.8248 23.0582 -4.28569e-006 -3.66567e-008 1.56627e-006 2.87081 0.0314453 -0.0870241 -3.60897e-006 2.55821e-006 -3.0072 8.02993 -4.95141 0.697637 -70.8045 -1.05164 1.92628 -101.19 18.5902 -20.3965 3.94992e-006 -2.13711e-006 1.49383e-006 -2.58546 2.58416 -0.259271 -5.8692e-006 4.24387e-007 3.00558 -8.0299 -4.95141 -0.69765 176.822 -4.93982 -2.33692 -180 7.01499e-015 178.73 177.933 6.91186 179.573 -3.87685e-006 -2.58471e-006 0.177689 -20.8619 70.2693 21.6396 8.17546 25.8819 -2.61813 -173.01 -2.17922 -0.449633 4.54188e-006 -4.6773e-006 -1.20171 -2.00992 -9.81825 0.116919 -2.5591e-006 -2.09025e-006 -0.25782 22.2788 71.7957 -23.3489 -8.13269 25.2457 3.48656 
